# xmcd
#
# Track frame offsets:
#	150
#	16370
#	34547
#	50648
#	68567
#	85428
#	101895
#	118382
#	136800
#	152979
#	174512
#	188981
#	203595
#	224907
#
# Disc length: 3218 seconds
#
# Revision: 0
# Processed by: cddbd v1.5.2PL0 Copyright (c) Steve Scherf et al.
# Submitted via: audiograbber 1.83.01
#
DISCID=d00c900e
DTITLE=Rednex - The Best Of The West
DYEAR=2002
DGENRE=
TTITLE0=Cotton Eye Joe 2002
TTITLE1=Spirit Of The Hawk
TTITLE2=Old Pop In An Oak
TTITLE3=Wish You Were Here
TTITLE4=Are You Strong Enough
TTITLE5=The Way I Mate
TTITLE6=The Song Of Silence
TTITLE7=Love Me Or Leave Me
TTITLE8=The Devil Went Down To Georgia
TTITLE9=Hold Me For A While
TTITLE10=The Chase
TTITLE11=Cotton Eye Joe
TTITLE12=Rolling Home
TTITLE13=Wild And Free
EXTD=
EXTT0=
EXTT1=
EXTT2=
EXTT3=
EXTT4=
EXTT5=
EXTT6=
EXTT7=
EXTT8=
EXTT9=
EXTT10=
EXTT11=
EXTT12=
EXTT13=
PLAYORDER=
